<svg xmlns="http://www.w3.org/2000/svg" xmlns:xlink="http://www.w3.org/1999/xlink" width="100" zoomAndPan="magnify" viewBox="0 0 75 74.999997" height="100" preserveAspectRatio="xMidYMid meet" version="1.0"><defs><g/></defs><g fill="#a7c2d4" fill-opacity="1"><g transform="translate(1.226594, 44.472692)"><g><path d="M 29.359375 0.578125 L 18.765625 -15.84375 L 8.5625 0.640625 L 1.71875 -2.71875 L 14.203125 -21.75 L 0.765625 -39 L 8.625 -44.125 L 18.828125 -28.28125 L 28.65625 -44.390625 L 35.3125 -40.453125 L 23.71875 -22.375 L 37.15625 -4.375 Z M 29.359375 0.578125 "/></g></g></g><g fill="#a7c2d4" fill-opacity="1"><g transform="translate(35.520614, 73.683705)"><g><path d="M 29.359375 0.578125 L 18.765625 -15.84375 L 8.5625 0.640625 L 1.71875 -2.71875 L 14.203125 -21.75 L 0.765625 -39 L 8.625 -44.125 L 18.828125 -28.28125 L 28.65625 -44.390625 L 35.3125 -40.453125 L 23.71875 -22.375 L 37.15625 -4.375 Z M 29.359375 0.578125 "/></g></g></g><g fill="#7bbade" fill-opacity="1"><g transform="translate(3.549174, 74.275181)"><g><path d="M 16.703125 -32.484375 C 20.359375 -32.484375 23.367188 -31.085938 25.734375 -28.296875 C 28.097656 -25.515625 29.28125 -21.976562 29.28125 -17.6875 C 29.28125 -12.238281 27.875 -7.84375 25.0625 -4.5 C 22.25 -1.15625 18.550781 0.515625 13.96875 0.515625 C 10.40625 0.515625 7.414062 -0.914062 5 -3.78125 C 2.59375 -6.644531 1.390625 -10.179688 1.390625 -14.390625 C 1.390625 -19.648438 2.828125 -23.976562 5.703125 -27.375 C 8.585938 -30.78125 12.253906 -32.484375 16.703125 -32.484375 Z M 22.96875 -15.078125 C 22.96875 -22.910156 20.398438 -26.828125 15.265625 -26.828125 C 12.910156 -26.828125 11.0625 -25.953125 9.71875 -24.203125 C 8.375 -22.453125 7.703125 -19.835938 7.703125 -16.359375 C 7.703125 -12.878906 8.421875 -10.015625 9.859375 -7.765625 C 11.296875 -5.523438 13.195312 -4.40625 15.5625 -4.40625 C 17.9375 -4.40625 19.765625 -5.351562 21.046875 -7.25 C 22.328125 -9.15625 22.96875 -11.765625 22.96875 -15.078125 Z M 22.96875 -15.078125 "/></g></g></g><g fill="#7bbade" fill-opacity="1"><g transform="translate(39.397096, 32.703757)"><g><path d="M 16.703125 -32.484375 C 20.359375 -32.484375 23.367188 -31.085938 25.734375 -28.296875 C 28.097656 -25.515625 29.28125 -21.976562 29.28125 -17.6875 C 29.28125 -12.238281 27.875 -7.84375 25.0625 -4.5 C 22.25 -1.15625 18.550781 0.515625 13.96875 0.515625 C 10.40625 0.515625 7.414062 -0.914062 5 -3.78125 C 2.59375 -6.644531 1.390625 -10.179688 1.390625 -14.390625 C 1.390625 -19.648438 2.828125 -23.976562 5.703125 -27.375 C 8.585938 -30.78125 12.253906 -32.484375 16.703125 -32.484375 Z M 22.96875 -15.078125 C 22.96875 -22.910156 20.398438 -26.828125 15.265625 -26.828125 C 12.910156 -26.828125 11.0625 -25.953125 9.71875 -24.203125 C 8.375 -22.453125 7.703125 -19.835938 7.703125 -16.359375 C 7.703125 -12.878906 8.421875 -10.015625 9.859375 -7.765625 C 11.296875 -5.523438 13.195312 -4.40625 15.5625 -4.40625 C 17.9375 -4.40625 19.765625 -5.351562 21.046875 -7.25 C 22.328125 -9.15625 22.96875 -11.765625 22.96875 -15.078125 Z M 22.96875 -15.078125 "/></g></g></g></svg>